<mxfile host="app.diagrams.net" agent="Mozilla/5.0 (Windows NT 10.0; Win64; x64) AppleWebKit/537.36 (KHTML, like Gecko) Chrome/122.0.0.0 Safari/537.36" version="25.0.3">
  <diagram name="Trang-1" id="Eb8rYHXf7MauTqeLhaFF">
    <mxGraphModel dx="1050" dy="522" grid="1" gridSize="10" guides="1" tooltips="1" connect="1" arrows="1" fold="1" page="1" pageScale="1" pageWidth="827" pageHeight="1169" math="0" shadow="0">
      <root>
        <mxCell id="0" />
        <mxCell id="1" parent="0" />
        <mxCell id="8xq1Ygr9IKgkG8tb1IIz-12" style="edgeStyle=orthogonalEdgeStyle;rounded=0;orthogonalLoop=1;jettySize=auto;html=1;exitX=0.5;exitY=1;exitDx=0;exitDy=0;entryX=0.5;entryY=0;entryDx=0;entryDy=0;dashed=1;dashPattern=8 8;" edge="1" parent="1" source="8xq1Ygr9IKgkG8tb1IIz-3" target="8xq1Ygr9IKgkG8tb1IIz-5">
          <mxGeometry relative="1" as="geometry" />
        </mxCell>
        <mxCell id="8xq1Ygr9IKgkG8tb1IIz-3" value="«component»&lt;br&gt;&lt;div&gt;&lt;b&gt;Presentation layer&lt;/b&gt;&lt;/div&gt;" style="html=1;dropTarget=0;whiteSpace=wrap;" vertex="1" parent="1">
          <mxGeometry x="230" y="50" width="200" height="50" as="geometry" />
        </mxCell>
        <mxCell id="8xq1Ygr9IKgkG8tb1IIz-4" value="" style="shape=module;jettyWidth=8;jettyHeight=4;" vertex="1" parent="8xq1Ygr9IKgkG8tb1IIz-3">
          <mxGeometry x="1" width="20" height="20" relative="1" as="geometry">
            <mxPoint x="-27" y="7" as="offset" />
          </mxGeometry>
        </mxCell>
        <mxCell id="8xq1Ygr9IKgkG8tb1IIz-13" style="edgeStyle=orthogonalEdgeStyle;rounded=0;orthogonalLoop=1;jettySize=auto;html=1;exitX=0.5;exitY=1;exitDx=0;exitDy=0;entryX=0.5;entryY=0;entryDx=0;entryDy=0;dashed=1;dashPattern=8 8;" edge="1" parent="1" source="8xq1Ygr9IKgkG8tb1IIz-5" target="8xq1Ygr9IKgkG8tb1IIz-8">
          <mxGeometry relative="1" as="geometry" />
        </mxCell>
        <mxCell id="8xq1Ygr9IKgkG8tb1IIz-5" value="«component»&lt;br&gt;&lt;div&gt;&lt;b&gt;Business layer&lt;/b&gt;&lt;/div&gt;" style="html=1;dropTarget=0;whiteSpace=wrap;" vertex="1" parent="1">
          <mxGeometry x="230" y="150" width="200" height="50" as="geometry" />
        </mxCell>
        <mxCell id="8xq1Ygr9IKgkG8tb1IIz-6" value="" style="shape=module;jettyWidth=8;jettyHeight=4;" vertex="1" parent="8xq1Ygr9IKgkG8tb1IIz-5">
          <mxGeometry x="1" width="20" height="20" relative="1" as="geometry">
            <mxPoint x="-27" y="7" as="offset" />
          </mxGeometry>
        </mxCell>
        <mxCell id="8xq1Ygr9IKgkG8tb1IIz-14" style="edgeStyle=orthogonalEdgeStyle;rounded=0;orthogonalLoop=1;jettySize=auto;html=1;exitX=0.5;exitY=1;exitDx=0;exitDy=0;entryX=0.5;entryY=0;entryDx=0;entryDy=0;dashed=1;dashPattern=8 8;" edge="1" parent="1" source="8xq1Ygr9IKgkG8tb1IIz-8" target="8xq1Ygr9IKgkG8tb1IIz-10">
          <mxGeometry relative="1" as="geometry" />
        </mxCell>
        <mxCell id="8xq1Ygr9IKgkG8tb1IIz-8" value="«component»&lt;br&gt;&lt;div&gt;&lt;b&gt;Data access layer&lt;/b&gt;&lt;/div&gt;" style="html=1;dropTarget=0;whiteSpace=wrap;" vertex="1" parent="1">
          <mxGeometry x="230" y="250" width="200" height="50" as="geometry" />
        </mxCell>
        <mxCell id="8xq1Ygr9IKgkG8tb1IIz-9" value="" style="shape=module;jettyWidth=8;jettyHeight=4;" vertex="1" parent="8xq1Ygr9IKgkG8tb1IIz-8">
          <mxGeometry x="1" width="20" height="20" relative="1" as="geometry">
            <mxPoint x="-27" y="7" as="offset" />
          </mxGeometry>
        </mxCell>
        <mxCell id="8xq1Ygr9IKgkG8tb1IIz-10" value="«component»&lt;br&gt;&lt;div&gt;&lt;b&gt;ADO.net&lt;/b&gt;&lt;/div&gt;" style="html=1;dropTarget=0;whiteSpace=wrap;" vertex="1" parent="1">
          <mxGeometry x="230" y="350" width="200" height="50" as="geometry" />
        </mxCell>
        <mxCell id="8xq1Ygr9IKgkG8tb1IIz-11" value="" style="shape=module;jettyWidth=8;jettyHeight=4;" vertex="1" parent="8xq1Ygr9IKgkG8tb1IIz-10">
          <mxGeometry x="1" width="20" height="20" relative="1" as="geometry">
            <mxPoint x="-27" y="7" as="offset" />
          </mxGeometry>
        </mxCell>
        <mxCell id="8xq1Ygr9IKgkG8tb1IIz-15" value="&lt;b&gt;Component Diagram&lt;/b&gt;" style="text;html=1;align=center;verticalAlign=middle;resizable=0;points=[];autosize=1;strokeColor=none;fillColor=none;" vertex="1" parent="1">
          <mxGeometry x="260" y="10" width="140" height="30" as="geometry" />
        </mxCell>
      </root>
    </mxGraphModel>
  </diagram>
</mxfile>
